<svg width="154" height="72" viewBox="0 0 154 72" fill="none" xmlns="http://www.w3.org/2000/svg">
<path d="M1.728 24V7.2H12.168V9.168H4.128V14.616H10.848V16.536H4.128V24H1.728ZM19.5264 24.288C18.3584 24.288 17.3264 24.032 16.4304 23.52C15.5344 22.992 14.8304 22.264 14.3184 21.336C13.8064 20.408 13.5504 19.32 13.5504 18.072C13.5504 16.824 13.7984 15.736 14.2944 14.808C14.8064 13.864 15.5104 13.128 16.4064 12.6C17.3184 12.072 18.3744 11.808 19.5744 11.808C20.7424 11.808 21.7504 12.072 22.5984 12.6C23.4624 13.112 24.1264 13.792 24.5904 14.64C25.0544 15.488 25.2864 16.432 25.2864 17.472C25.2864 17.632 25.2864 17.808 25.2864 18C25.2864 18.192 25.2784 18.392 25.2624 18.6H15.3264V16.92H22.8864C22.8384 15.96 22.5024 15.2 21.8784 14.64C21.2544 14.08 20.4704 13.8 19.5264 13.8C18.8864 13.8 18.2864 13.944 17.7264 14.232C17.1824 14.52 16.7424 14.944 16.4064 15.504C16.0704 16.048 15.9024 16.744 15.9024 17.592V18.264C15.9024 19.144 16.0704 19.88 16.4064 20.472C16.7424 21.064 17.1824 21.52 17.7264 21.84C18.2864 22.144 18.8864 22.296 19.5264 22.296C20.2784 22.296 20.9104 22.12 21.4224 21.768C21.9344 21.416 22.3104 20.952 22.5504 20.376H24.9504C24.7424 21.128 24.3904 21.8 23.8944 22.392C23.3984 22.968 22.7824 23.432 22.0464 23.784C21.3104 24.12 20.4704 24.288 19.5264 24.288ZM31.9369 24.288C30.9289 24.288 30.0969 24.128 29.4409 23.808C28.7849 23.472 28.2969 23.024 27.9769 22.464C27.6569 21.904 27.4969 21.296 27.4969 20.64C27.4969 19.856 27.6969 19.184 28.0969 18.624C28.5129 18.064 29.1049 17.632 29.8729 17.328C30.6569 17.024 31.5929 16.872 32.6809 16.872H35.8249C35.8249 16.184 35.7129 15.616 35.4889 15.168C35.2809 14.72 34.9689 14.384 34.5529 14.16C34.1369 13.92 33.6329 13.8 33.0409 13.8C32.3049 13.8 31.6649 13.984 31.1209 14.352C30.5929 14.704 30.2729 15.224 30.1609 15.912H27.7609C27.8569 15.032 28.1529 14.296 28.6489 13.704C29.1449 13.096 29.7769 12.632 30.5449 12.312C31.3289 11.976 32.1609 11.808 33.0409 11.808C34.1609 11.808 35.1049 12.008 35.8729 12.408C36.6409 12.808 37.2249 13.376 37.6249 14.112C38.0249 14.832 38.2249 15.688 38.2249 16.68V24H36.1369L35.9449 21.96C35.7849 22.28 35.5769 22.584 35.3209 22.872C35.0809 23.16 34.7929 23.408 34.4569 23.616C34.1369 23.824 33.7609 23.984 33.3289 24.096C32.9129 24.224 32.4489 24.288 31.9369 24.288ZM32.3929 22.344C32.9209 22.344 33.3929 22.24 33.8089 22.032C34.2249 21.824 34.5769 21.544 34.8649 21.192C35.1529 20.824 35.3689 20.424 35.5129 19.992C35.6729 19.544 35.7609 19.08 35.7769 18.6V18.576H32.9209C32.2169 18.576 31.6489 18.656 31.2169 18.816C30.8009 18.976 30.4969 19.2 30.3049 19.488C30.1129 19.776 30.0169 20.112 30.0169 20.496C30.0169 20.864 30.1049 21.192 30.2809 21.48C30.4729 21.752 30.7449 21.968 31.0969 22.128C31.4489 22.272 31.8809 22.344 32.3929 22.344ZM45.9036 24C45.1356 24 44.4716 23.88 43.9116 23.64C43.3516 23.4 42.9196 23 42.6156 22.44C42.3116 21.88 42.1596 21.12 42.1596 20.16V14.112H40.1196V12.096H42.1596L42.4716 9.12H44.5596V12.096H47.9676V14.112H44.5596V20.184C44.5596 20.872 44.7036 21.344 44.9916 21.6C45.2796 21.84 45.7756 21.96 46.4796 21.96H47.8236V24H45.9036ZM54.9375 24.288C53.9935 24.288 53.1695 24.096 52.4655 23.712C51.7775 23.312 51.2495 22.72 50.8815 21.936C50.5135 21.152 50.3295 20.16 50.3295 18.96V12.096H52.7055V18.72C52.7055 19.888 52.9455 20.768 53.4255 21.36C53.9215 21.952 54.6415 22.248 55.5855 22.248C56.2255 22.248 56.8015 22.096 57.3135 21.792C57.8255 21.472 58.2255 21.016 58.5135 20.424C58.8015 19.832 58.9455 19.112 58.9455 18.264V12.096H61.3455V24H59.2095L59.0415 21.912C58.6575 22.648 58.1055 23.232 57.3855 23.664C56.6815 24.08 55.8655 24.288 54.9375 24.288ZM64.6086 24V12.096H66.7686L66.9606 14.376C67.2326 13.848 67.5766 13.392 67.9926 13.008C68.4086 12.624 68.8966 12.328 69.4566 12.12C70.0326 11.912 70.6806 11.808 71.4006 11.808V14.328H70.7286C70.2166 14.328 69.7286 14.392 69.2646 14.52C68.8166 14.648 68.4166 14.856 68.0646 15.144C67.7286 15.432 67.4646 15.832 67.2726 16.344C67.0966 16.84 67.0086 17.464 67.0086 18.216V24H64.6086ZM78.753 24.288C77.585 24.288 76.553 24.032 75.657 23.52C74.761 22.992 74.057 22.264 73.545 21.336C73.033 20.408 72.777 19.32 72.777 18.072C72.777 16.824 73.025 15.736 73.521 14.808C74.033 13.864 74.737 13.128 75.633 12.6C76.545 12.072 77.601 11.808 78.801 11.808C79.969 11.808 80.977 12.072 81.825 12.6C82.689 13.112 83.353 13.792 83.817 14.64C84.281 15.488 84.513 16.432 84.513 17.472C84.513 17.632 84.513 17.808 84.513 18C84.513 18.192 84.505 18.392 84.489 18.6H74.553V16.92H82.113C82.065 15.96 81.729 15.2 81.105 14.64C80.481 14.08 79.697 13.8 78.753 13.8C78.113 13.8 77.513 13.944 76.953 14.232C76.409 14.52 75.969 14.944 75.633 15.504C75.297 16.048 75.129 16.744 75.129 17.592V18.264C75.129 19.144 75.297 19.88 75.633 20.472C75.969 21.064 76.409 21.52 76.953 21.84C77.513 22.144 78.113 22.296 78.753 22.296C79.505 22.296 80.137 22.12 80.649 21.768C81.161 21.416 81.537 20.952 81.777 20.376H84.177C83.969 21.128 83.617 21.8 83.121 22.392C82.625 22.968 82.009 23.432 81.273 23.784C80.537 24.12 79.697 24.288 78.753 24.288ZM92.5794 24.288C91.4114 24.288 90.3794 24.016 89.4834 23.472C88.6034 22.928 87.9154 22.184 87.4194 21.24C86.9234 20.296 86.6754 19.224 86.6754 18.024C86.6754 16.824 86.9234 15.76 87.4194 14.832C87.9154 13.888 88.6114 13.152 89.5074 12.624C90.4034 12.08 91.4274 11.808 92.5794 11.808C93.5394 11.808 94.3794 12 95.0994 12.384C95.8354 12.752 96.4034 13.272 96.8034 13.944V6.72H99.2034V24H97.0434L96.8034 22.128C96.5474 22.496 96.2274 22.848 95.8434 23.184C95.4594 23.504 94.9954 23.768 94.4514 23.976C93.9074 24.184 93.2834 24.288 92.5794 24.288ZM92.9394 22.2C93.6914 22.2 94.3554 22.024 94.9314 21.672C95.5074 21.32 95.9554 20.832 96.2754 20.208C96.6114 19.584 96.7794 18.864 96.7794 18.048C96.7794 17.216 96.6114 16.496 96.2754 15.888C95.9554 15.264 95.5074 14.776 94.9314 14.424C94.3554 14.072 93.6914 13.896 92.9394 13.896C92.2034 13.896 91.5474 14.072 90.9714 14.424C90.3954 14.776 89.9474 15.264 89.6274 15.888C89.3074 16.496 89.1474 17.216 89.1474 18.048C89.1474 18.864 89.3074 19.584 89.6274 20.208C89.9474 20.832 90.3954 21.32 90.9714 21.672C91.5474 22.024 92.2034 22.2 92.9394 22.2ZM108.722 24V12.096H111.122V24H108.722ZM109.922 9.744C109.458 9.744 109.074 9.6 108.77 9.312C108.482 9.024 108.338 8.656 108.338 8.208C108.338 7.776 108.482 7.424 108.77 7.152C109.074 6.864 109.458 6.72 109.922 6.72C110.37 6.72 110.746 6.864 111.05 7.152C111.354 7.424 111.506 7.776 111.506 8.208C111.506 8.656 111.354 9.024 111.05 9.312C110.746 9.6 110.37 9.744 109.922 9.744ZM114.53 24V12.096H116.666L116.834 14.184C117.218 13.448 117.762 12.872 118.466 12.456C119.17 12.024 119.986 11.808 120.914 11.808C121.874 11.808 122.698 12.008 123.386 12.408C124.074 12.792 124.602 13.376 124.97 14.16C125.354 14.944 125.546 15.936 125.546 17.136V24H123.17V17.376C123.17 16.224 122.922 15.352 122.426 14.76C121.946 14.152 121.226 13.848 120.266 13.848C119.626 13.848 119.05 14.008 118.538 14.328C118.042 14.632 117.65 15.08 117.362 15.672C117.074 16.264 116.93 16.984 116.93 17.832V24H114.53ZM6.552 55C5.784 55 5.12 54.88 4.56 54.64C4 54.4 3.568 54 3.264 53.44C2.96 52.88 2.808 52.12 2.808 51.16V45.112H0.768V43.096H2.808L3.12 40.12H5.208V43.096H8.616V45.112H5.208V51.184C5.208 51.872 5.352 52.344 5.64 52.6C5.928 52.84 6.424 52.96 7.128 52.96H8.472V55H6.552ZM16.3858 55.288C15.2658 55.288 14.2498 55.032 13.3378 54.52C12.4418 53.992 11.7298 53.264 11.2018 52.336C10.6738 51.392 10.4098 50.296 10.4098 49.048C10.4098 47.8 10.6738 46.712 11.2018 45.784C11.7458 44.84 12.4738 44.112 13.3858 43.6C14.2978 43.072 15.3138 42.808 16.4338 42.808C17.5698 42.808 18.5858 43.072 19.4818 43.6C20.3938 44.112 21.1138 44.832 21.6418 45.76C22.1698 46.688 22.4338 47.784 22.4338 49.048C22.4338 50.296 22.1618 51.392 21.6178 52.336C21.0898 53.264 20.3698 53.992 19.4578 54.52C18.5458 55.032 17.5218 55.288 16.3858 55.288ZM16.4098 53.224C17.0338 53.224 17.6178 53.072 18.1618 52.768C18.7058 52.448 19.1458 51.976 19.4818 51.352C19.8178 50.728 19.9858 49.96 19.9858 49.048C19.9858 48.12 19.8178 47.352 19.4818 46.744C19.1618 46.12 18.7298 45.656 18.1858 45.352C17.6418 45.032 17.0578 44.872 16.4338 44.872C15.8258 44.872 15.2418 45.032 14.6818 45.352C14.1378 45.656 13.6978 46.12 13.3618 46.744C13.0418 47.352 12.8818 48.12 12.8818 49.048C12.8818 49.96 13.0418 50.728 13.3618 51.352C13.6978 51.976 14.1298 52.448 14.6578 52.768C15.2018 53.072 15.7858 53.224 16.4098 53.224ZM25.2101 60.28V43.096H27.3701L27.6101 44.968C27.8661 44.6 28.1861 44.248 28.5701 43.912C28.9541 43.576 29.4101 43.312 29.9381 43.12C30.4821 42.912 31.1141 42.808 31.8341 42.808C33.0021 42.808 34.0181 43.08 34.8821 43.624C35.7621 44.168 36.4501 44.912 36.9461 45.856C37.4421 46.8 37.6901 47.872 37.6901 49.072C37.6901 50.272 37.4421 51.344 36.9461 52.288C36.4501 53.216 35.7621 53.952 34.8821 54.496C34.0021 55.024 32.9781 55.288 31.8101 55.288C30.8661 55.288 30.0341 55.104 29.3141 54.736C28.5941 54.352 28.0261 53.824 27.6101 53.152V60.28H25.2101ZM31.4261 53.2C32.1781 53.2 32.8421 53.024 33.4181 52.672C33.9941 52.32 34.4421 51.84 34.7621 51.232C35.0981 50.608 35.2661 49.88 35.2661 49.048C35.2661 48.232 35.0981 47.512 34.7621 46.888C34.4421 46.264 33.9941 45.776 33.4181 45.424C32.8421 45.072 32.1781 44.896 31.4261 44.896C30.6901 44.896 30.0261 45.072 29.4341 45.424C28.8581 45.776 28.4101 46.264 28.0901 46.888C27.7701 47.512 27.6101 48.232 27.6101 49.048C27.6101 49.864 27.7701 50.584 28.0901 51.208C28.4101 51.832 28.8581 52.32 29.4341 52.672C30.0261 53.024 30.6901 53.2 31.4261 53.2ZM52.2006 55.288C51.0326 55.288 49.9926 55.024 49.0806 54.496C48.1686 53.968 47.4486 53.24 46.9206 52.312C46.3926 51.368 46.1286 50.28 46.1286 49.048C46.1286 47.816 46.3926 46.736 46.9206 45.808C47.4486 44.864 48.1686 44.128 49.0806 43.6C49.9926 43.072 51.0326 42.808 52.2006 42.808C53.6726 42.808 54.8966 43.192 55.8726 43.96C56.8646 44.712 57.4886 45.728 57.7446 47.008H55.2726C55.1126 46.336 54.7446 45.816 54.1686 45.448C53.6086 45.064 52.9446 44.872 52.1766 44.872C51.5366 44.872 50.9446 45.032 50.4006 45.352C49.8566 45.656 49.4166 46.12 49.0806 46.744C48.7606 47.368 48.6006 48.136 48.6006 49.048C48.6006 49.72 48.6966 50.32 48.8886 50.848C49.0806 51.376 49.3366 51.816 49.6566 52.168C49.9926 52.52 50.3766 52.792 50.8086 52.984C51.2566 53.16 51.7126 53.248 52.1766 53.248C52.6886 53.248 53.1526 53.168 53.5686 53.008C54.0006 52.832 54.3606 52.584 54.6486 52.264C54.9526 51.944 55.1606 51.552 55.2726 51.088H57.7446C57.4886 52.352 56.8646 53.368 55.8726 54.136C54.8806 54.904 53.6566 55.288 52.2006 55.288ZM60.5539 55V37.72H62.9539V45.064C63.3539 44.36 63.9059 43.808 64.6099 43.408C65.3139 43.008 66.1139 42.808 67.0099 42.808C67.9379 42.808 68.7459 43.008 69.4339 43.408C70.1219 43.792 70.6499 44.384 71.0179 45.184C71.3859 45.968 71.5699 46.952 71.5699 48.136V55H69.1939V48.376C69.1939 47.224 68.9619 46.352 68.4979 45.76C68.0339 45.152 67.3219 44.848 66.3619 44.848C65.7219 44.848 65.1379 45.008 64.6099 45.328C64.0979 45.632 63.6899 46.08 63.3859 46.672C63.0979 47.264 62.9539 47.984 62.9539 48.832V55H60.5539ZM78.6009 55.288C77.5929 55.288 76.7609 55.128 76.1049 54.808C75.4489 54.472 74.9609 54.024 74.6409 53.464C74.3209 52.904 74.1609 52.296 74.1609 51.64C74.1609 50.856 74.3609 50.184 74.7609 49.624C75.1769 49.064 75.7689 48.632 76.5369 48.328C77.3209 48.024 78.2569 47.872 79.3449 47.872H82.4889C82.4889 47.184 82.3769 46.616 82.1529 46.168C81.9449 45.72 81.6329 45.384 81.2169 45.16C80.8009 44.92 80.2969 44.8 79.7049 44.8C78.9689 44.8 78.3289 44.984 77.7849 45.352C77.2569 45.704 76.9369 46.224 76.8249 46.912H74.4249C74.5209 46.032 74.8169 45.296 75.3129 44.704C75.8089 44.096 76.4409 43.632 77.2089 43.312C77.9929 42.976 78.8249 42.808 79.7049 42.808C80.8249 42.808 81.7689 43.008 82.5369 43.408C83.3049 43.808 83.8889 44.376 84.2889 45.112C84.6889 45.832 84.8889 46.688 84.8889 47.68V55H82.8009L82.6089 52.96C82.4489 53.28 82.2409 53.584 81.9849 53.872C81.7449 54.16 81.4569 54.408 81.1209 54.616C80.8009 54.824 80.4249 54.984 79.9929 55.096C79.5769 55.224 79.1129 55.288 78.6009 55.288ZM79.0569 53.344C79.5849 53.344 80.0569 53.24 80.4729 53.032C80.8889 52.824 81.2409 52.544 81.5289 52.192C81.8169 51.824 82.0329 51.424 82.1769 50.992C82.3369 50.544 82.4249 50.08 82.4409 49.6V49.576H79.5849C78.8809 49.576 78.3129 49.656 77.8809 49.816C77.4649 49.976 77.1609 50.2 76.9689 50.488C76.7769 50.776 76.6809 51.112 76.6809 51.496C76.6809 51.864 76.7689 52.192 76.9449 52.48C77.1369 52.752 77.4089 52.968 77.7609 53.128C78.1129 53.272 78.5449 53.344 79.0569 53.344ZM87.9054 55V43.096H90.0414L90.2094 45.184C90.5934 44.448 91.1374 43.872 91.8414 43.456C92.5454 43.024 93.3614 42.808 94.2894 42.808C95.2494 42.808 96.0734 43.008 96.7614 43.408C97.4494 43.792 97.9774 44.376 98.3454 45.16C98.7294 45.944 98.9214 46.936 98.9214 48.136V55H96.5454V48.376C96.5454 47.224 96.2974 46.352 95.8014 45.76C95.3214 45.152 94.6014 44.848 93.6414 44.848C93.0014 44.848 92.4254 45.008 91.9134 45.328C91.4174 45.632 91.0254 46.08 90.7374 46.672C90.4494 47.264 90.3054 47.984 90.3054 48.832V55H87.9054ZM101.945 55V43.096H104.081L104.249 45.184C104.633 44.448 105.177 43.872 105.881 43.456C106.585 43.024 107.401 42.808 108.329 42.808C109.289 42.808 110.113 43.008 110.801 43.408C111.489 43.792 112.017 44.376 112.385 45.16C112.769 45.944 112.961 46.936 112.961 48.136V55H110.585V48.376C110.585 47.224 110.337 46.352 109.841 45.76C109.361 45.152 108.641 44.848 107.681 44.848C107.041 44.848 106.465 45.008 105.953 45.328C105.457 45.632 105.065 46.08 104.777 46.672C104.489 47.264 104.345 47.984 104.345 48.832V55H101.945ZM121.48 55.288C120.312 55.288 119.28 55.032 118.384 54.52C117.488 53.992 116.784 53.264 116.272 52.336C115.76 51.408 115.504 50.32 115.504 49.072C115.504 47.824 115.752 46.736 116.248 45.808C116.76 44.864 117.464 44.128 118.36 43.6C119.272 43.072 120.328 42.808 121.528 42.808C122.696 42.808 123.704 43.072 124.552 43.6C125.416 44.112 126.08 44.792 126.544 45.64C127.008 46.488 127.24 47.432 127.24 48.472C127.24 48.632 127.24 48.808 127.24 49C127.24 49.192 127.232 49.392 127.216 49.6H117.28V47.92H124.84C124.792 46.96 124.456 46.2 123.832 45.64C123.208 45.08 122.424 44.8 121.48 44.8C120.84 44.8 120.24 44.944 119.68 45.232C119.136 45.52 118.696 45.944 118.36 46.504C118.024 47.048 117.856 47.744 117.856 48.592V49.264C117.856 50.144 118.024 50.88 118.36 51.472C118.696 52.064 119.136 52.52 119.68 52.84C120.24 53.144 120.84 53.296 121.48 53.296C122.232 53.296 122.864 53.12 123.376 52.768C123.888 52.416 124.264 51.952 124.504 51.376H126.904C126.696 52.128 126.344 52.8 125.848 53.392C125.352 53.968 124.736 54.432 124 54.784C123.264 55.12 122.424 55.288 121.48 55.288ZM129.882 55V37.72H132.282V55H129.882ZM140.21 55.288C139.234 55.288 138.354 55.12 137.57 54.784C136.802 54.448 136.186 53.984 135.722 53.392C135.258 52.784 134.978 52.072 134.882 51.256H137.306C137.402 51.64 137.57 51.992 137.81 52.312C138.05 52.616 138.37 52.864 138.77 53.056C139.186 53.248 139.666 53.344 140.21 53.344C140.738 53.344 141.17 53.272 141.506 53.128C141.842 52.968 142.09 52.76 142.25 52.504C142.41 52.248 142.49 51.976 142.49 51.688C142.49 51.256 142.378 50.928 142.154 50.704C141.93 50.48 141.602 50.304 141.17 50.176C140.754 50.048 140.25 49.92 139.658 49.792C139.178 49.68 138.682 49.544 138.17 49.384C137.658 49.224 137.194 49.024 136.778 48.784C136.362 48.528 136.026 48.216 135.77 47.848C135.514 47.464 135.386 46.992 135.386 46.432C135.386 45.744 135.562 45.128 135.914 44.584C136.282 44.024 136.802 43.592 137.474 43.288C138.146 42.968 138.946 42.808 139.874 42.808C141.186 42.808 142.25 43.128 143.066 43.768C143.898 44.392 144.378 45.296 144.506 46.48H142.202C142.122 45.936 141.882 45.512 141.482 45.208C141.082 44.904 140.538 44.752 139.85 44.752C139.178 44.752 138.658 44.888 138.29 45.16C137.938 45.432 137.762 45.792 137.762 46.24C137.762 46.512 137.866 46.76 138.074 46.984C138.298 47.192 138.61 47.368 139.01 47.512C139.426 47.656 139.914 47.792 140.474 47.92C141.258 48.08 141.978 48.28 142.634 48.52C143.306 48.76 143.85 49.104 144.266 49.552C144.698 50 144.914 50.656 144.914 51.52C144.93 52.256 144.746 52.912 144.362 53.488C143.978 54.048 143.434 54.488 142.73 54.808C142.026 55.128 141.186 55.288 140.21 55.288Z" fill="#2B2B2B"/>
<path d="M41.3461 67.2281C54.9977 63.7805 96.4686 57.9626 153.14 62.2715" stroke="#DAAB47"/>
</svg>
