<svg width="157" height="20" viewBox="0 0 157 20" fill="none" xmlns="http://www.w3.org/2000/svg">
<path d="M4.65265 9.47572H7.78242C8.24418 9.47572 8.68885 9.44152 9.11642 9.37311C9.54398 9.3047 9.92023 9.17643 10.2452 8.9883C10.5701 8.78307 10.8267 8.50088 11.0148 8.14172C11.22 7.78257 11.3226 7.31225 11.3226 6.73076C11.3226 6.14927 11.22 5.67895 11.0148 5.3198C10.8267 4.96065 10.5701 4.68701 10.2452 4.49888C9.92023 4.29365 9.54398 4.15683 9.11642 4.08842C8.68885 4.02001 8.24418 3.9858 7.78242 3.9858H4.65265V9.47572ZM0.625 0.856036H8.88553C10.0314 0.856036 11.0062 1.02706 11.8101 1.36911C12.6139 1.69406 13.2638 2.13018 13.7598 2.67746C14.2728 3.22474 14.6405 3.84898 14.8629 4.55019C15.1023 5.25139 15.222 5.97825 15.222 6.73076C15.222 7.46617 15.1023 8.19303 14.8629 8.91134C14.6405 9.61254 14.2728 10.2368 13.7598 10.7841C13.2638 11.3313 12.6139 11.776 11.8101 12.1181C11.0062 12.443 10.0314 12.6055 8.88553 12.6055H4.65265V19.1729H0.625V0.856036Z" fill="#3B3B3B"/>
<path d="M19.2751 0.856036H23.3028V15.7866H32.2303V19.1729H19.2751V0.856036Z" fill="#3B3B3B"/>
<path d="M51.5675 12.2463C51.5675 14.7262 50.8748 16.5733 49.4895 17.7876C48.1042 18.9847 46.1887 19.5833 43.7431 19.5833C41.2632 19.5833 39.3392 18.9847 37.971 17.7876C36.6198 16.5904 35.9443 14.7433 35.9443 12.2463V0.856036H39.9719V12.2463C39.9719 12.7423 40.0147 13.2297 40.1002 13.7086C40.1857 14.1875 40.3653 14.615 40.6389 14.9913C40.9126 15.3504 41.2888 15.6497 41.7677 15.8892C42.2637 16.1115 42.9221 16.2227 43.7431 16.2227C45.1797 16.2227 46.1716 15.9063 46.7189 15.2735C47.2662 14.6236 47.5398 13.6145 47.5398 12.2463V0.856036H51.5675V12.2463Z" fill="#3B3B3B"/>
<path d="M59.3203 13.0929C59.3203 13.7086 59.4315 14.2302 59.6538 14.6578C59.8762 15.0854 60.1669 15.436 60.5261 15.7096C60.9023 15.9661 61.3384 16.1628 61.8344 16.2996C62.3304 16.4194 62.8435 16.4792 63.3736 16.4792C63.7328 16.4792 64.1176 16.4536 64.5281 16.4023C64.9385 16.3338 65.3233 16.2141 65.6825 16.0431C66.0416 15.8721 66.3409 15.6412 66.5804 15.3504C66.8198 15.0426 66.9395 14.6578 66.9395 14.196C66.9395 13.7001 66.7771 13.2981 66.4521 12.9903C66.1443 12.6824 65.7338 12.4259 65.2207 12.2207C64.7076 12.0154 64.1262 11.8359 63.4763 11.6819C62.8264 11.528 62.1679 11.357 61.5009 11.1689C60.8168 10.9978 60.1498 10.7926 59.4999 10.5532C58.85 10.2966 58.2685 9.97169 57.7555 9.57834C57.2424 9.18498 56.8234 8.69756 56.4984 8.11607C56.1906 7.51748 56.0367 6.79917 56.0367 5.96115C56.0367 5.02051 56.2333 4.20814 56.6267 3.52403C57.0371 2.82283 57.5673 2.24134 58.2172 1.77957C58.8671 1.3178 59.6025 0.975754 60.4235 0.75342C61.2444 0.531088 62.0653 0.419922 62.8862 0.419922C63.844 0.419922 64.7589 0.531088 65.6312 0.75342C66.5205 0.958651 67.3072 1.3007 67.9913 1.77957C68.6754 2.25845 69.2142 2.87414 69.6075 3.62665C70.018 4.36206 70.2232 5.25994 70.2232 6.3203H66.3238C66.2896 5.77302 66.1699 5.3198 65.9647 4.96065C65.7766 4.60149 65.52 4.3193 65.1951 4.11407C64.8701 3.90884 64.4939 3.76347 64.0663 3.67796C63.6558 3.59244 63.2026 3.54969 62.7066 3.54969C62.3817 3.54969 62.0567 3.58389 61.7318 3.6523C61.4068 3.72071 61.1076 3.84043 60.8339 4.01146C60.5774 4.18248 60.3636 4.39626 60.1926 4.6528C60.0215 4.90934 59.936 5.23429 59.936 5.62765C59.936 5.9868 60.0044 6.27754 60.1413 6.49988C60.2781 6.72221 60.5432 6.92744 60.9365 7.11557C61.347 7.3037 61.9028 7.49183 62.604 7.67995C63.3223 7.86808 64.2544 8.10752 65.4003 8.39826C65.7423 8.46667 66.2127 8.59494 66.8113 8.78307C67.4269 8.95409 68.0341 9.23629 68.6327 9.62964C69.2313 10.023 69.7443 10.5532 70.1719 11.2202C70.6166 11.8701 70.8389 12.7081 70.8389 13.7343C70.8389 14.5723 70.6764 15.3504 70.3515 16.0688C70.0265 16.7871 69.5391 17.4113 68.8892 17.9415C68.2564 18.4546 67.4612 18.8565 66.5034 19.1472C65.5628 19.438 64.4682 19.5833 63.2197 19.5833C62.2107 19.5833 61.2273 19.4551 60.2695 19.1985C59.3289 18.9591 58.4909 18.5743 57.7555 18.0441C57.0371 17.5139 56.4642 16.8384 56.0367 16.0174C55.6091 15.1965 55.4039 14.2217 55.421 13.0929H59.3203Z" fill="#3B3B3B"/>
<path d="M94.392 17.0949C93.6737 18.0184 92.8784 18.6683 92.0062 19.0446C91.134 19.4038 90.2532 19.5833 89.3639 19.5833C87.9615 19.5833 86.6959 19.3439 85.5671 18.865C84.4554 18.369 83.5148 17.6935 82.7452 16.8384C81.9756 15.9832 81.3855 14.9827 80.9751 13.8369C80.5646 12.6739 80.3594 11.4254 80.3594 10.0914C80.3594 8.72321 80.5646 7.45762 80.9751 6.29465C81.3855 5.11457 81.9756 4.08842 82.7452 3.21619C83.5148 2.34396 84.4554 1.65986 85.5671 1.16388C86.6959 0.667909 87.9615 0.419922 89.3639 0.419922C90.3045 0.419922 91.2109 0.565293 92.0832 0.856036C92.9725 1.12968 93.7678 1.54014 94.469 2.08742C95.1873 2.6347 95.7773 3.31025 96.2391 4.11407C96.7009 4.91789 96.9831 5.84143 97.0857 6.88468H93.2376C92.9982 5.85853 92.5364 5.08892 91.8523 4.57584C91.1682 4.06276 90.3387 3.80623 89.3639 3.80623C88.4574 3.80623 87.6878 3.9858 87.055 4.34496C86.4222 4.68701 85.9092 5.15733 85.5158 5.75592C85.1224 6.3374 84.8317 7.0044 84.6436 7.75692C84.4725 8.50943 84.387 9.28759 84.387 10.0914C84.387 10.861 84.4725 11.6135 84.6436 12.349C84.8317 13.0673 85.1224 13.7172 85.5158 14.2986C85.9092 14.8801 86.4222 15.3504 87.055 15.7096C87.6878 16.0517 88.4574 16.2227 89.3639 16.2227C90.6979 16.2227 91.724 15.8892 92.4423 15.2222C93.1777 14.5381 93.6053 13.5547 93.725 12.272H89.6717V9.27049H97.3679V19.1729H94.8025L94.392 17.0949Z" fill="#C4963C"/>
<path d="M105.392 10.0914C105.392 10.861 105.478 11.6135 105.649 12.349C105.837 13.0673 106.128 13.7172 106.521 14.2986C106.914 14.8801 107.427 15.3504 108.06 15.7096C108.693 16.0517 109.462 16.2227 110.369 16.2227C111.275 16.2227 112.045 16.0517 112.678 15.7096C113.311 15.3504 113.824 14.8801 114.217 14.2986C114.61 13.7172 114.893 13.0673 115.064 12.349C115.252 11.6135 115.346 10.861 115.346 10.0914C115.346 9.28759 115.252 8.50943 115.064 7.75692C114.893 7.0044 114.61 6.3374 114.217 5.75592C113.824 5.15733 113.311 4.68701 112.678 4.34496C112.045 3.9858 111.275 3.80623 110.369 3.80623C109.462 3.80623 108.693 3.9858 108.06 4.34496C107.427 4.68701 106.914 5.15733 106.521 5.75592C106.128 6.3374 105.837 7.0044 105.649 7.75692C105.478 8.50943 105.392 9.28759 105.392 10.0914ZM101.364 10.0914C101.364 8.72321 101.57 7.45762 101.98 6.29465C102.391 5.11457 102.981 4.08842 103.75 3.21619C104.52 2.34396 105.461 1.65986 106.572 1.16388C107.701 0.667909 108.967 0.419922 110.369 0.419922C111.788 0.419922 113.054 0.667909 114.166 1.16388C115.277 1.65986 116.218 2.34396 116.988 3.21619C117.757 4.08842 118.347 5.11457 118.758 6.29465C119.168 7.45762 119.373 8.72321 119.373 10.0914C119.373 11.4254 119.168 12.6739 118.758 13.8369C118.347 14.9827 117.757 15.9832 116.988 16.8384C116.218 17.6935 115.277 18.369 114.166 18.865C113.054 19.3439 111.788 19.5833 110.369 19.5833C108.967 19.5833 107.701 19.3439 106.572 18.865C105.461 18.369 104.52 17.6935 103.75 16.8384C102.981 15.9832 102.391 14.9827 101.98 13.8369C101.57 12.6739 101.364 11.4254 101.364 10.0914Z" fill="#C4963C"/>
<path d="M123.666 0.856036H127.693V15.7866H136.621V19.1729H123.666V0.856036Z" fill="#C4963C"/>
<path d="M144.44 15.7866H148.031C148.613 15.7866 149.177 15.6925 149.724 15.5044C150.272 15.3162 150.759 15.0084 151.187 14.5808C151.614 14.1362 151.956 13.5632 152.213 12.862C152.469 12.1608 152.598 11.3057 152.598 10.2966C152.598 9.37311 152.503 8.54363 152.315 7.80822C152.144 7.05571 151.854 6.41436 151.443 5.88419C151.033 5.35401 150.485 4.9521 149.801 4.67846C149.134 4.38771 148.305 4.24234 147.313 4.24234H144.44V15.7866ZM140.412 0.856036H148.313C149.493 0.856036 150.588 1.04416 151.597 1.42042C152.623 1.79668 153.504 2.36106 154.239 3.11357C154.992 3.86608 155.573 4.80673 155.984 5.93549C156.411 7.06426 156.625 8.38971 156.625 9.91184C156.625 11.2458 156.454 12.4772 156.112 13.606C155.77 14.7348 155.248 15.7096 154.547 16.5305C153.863 17.3514 152.999 18.0013 151.956 18.4802C150.93 18.942 149.716 19.1729 148.313 19.1729H140.412V0.856036Z" fill="#C4963C"/>
</svg>
