<svg width="60" height="17" viewBox="0 0 60 17" fill="none" xmlns="http://www.w3.org/2000/svg">
<path d="M59.784 7.71979L52.284 0.219792C52.1432 0.0790615 51.9524 0 51.7533 0C51.5543 0 51.3635 0.0790615 51.2227 0.219792C51.082 0.360523 51.0029 0.551394 51.0029 0.750417C51.0029 0.94944 51.082 1.14031 51.2227 1.28104L58.193 8.25042L51.2227 15.2198C51.082 15.3605 51.0029 15.5514 51.0029 15.7504C51.0029 15.9494 51.082 16.1403 51.2227 16.281C51.3635 16.4218 51.5543 16.5008 51.7533 16.5008C51.9524 16.5008 52.1432 16.4218 52.284 16.281L59.784 8.78104C59.8537 8.71139 59.909 8.62867 59.9468 8.53762C59.9845 8.44657 60.0039 8.34898 60.0039 8.25042C60.0039 8.15186 59.9845 8.05426 59.9468 7.96321C59.909 7.87216 59.8537 7.78945 59.784 7.71979Z" fill="#FEAE37"/>
<path opacity="0.8" d="M42.783 7.71979L35.283 0.219792C35.1423 0.0790615 34.9514 0 34.7524 0C34.5533 0 34.3625 0.0790615 34.2217 0.219792C34.081 0.360523 34.002 0.551394 34.002 0.750417C34.002 0.94944 34.081 1.14031 34.2217 1.28104L41.1921 8.25042L34.2217 15.2198C34.081 15.3605 34.002 15.5514 34.002 15.7504C34.002 15.9494 34.081 16.1403 34.2217 16.281C34.3625 16.4218 34.5533 16.5008 34.7524 16.5008C34.9514 16.5008 35.1423 16.4218 35.283 16.281L42.783 8.78104C42.8527 8.71139 42.908 8.62867 42.9458 8.53762C42.9835 8.44657 43.003 8.34898 43.003 8.25042C43.003 8.15186 42.9835 8.05426 42.9458 7.96321C42.908 7.87216 42.8527 7.78945 42.783 7.71979Z" fill="#FEAE37"/>
<path opacity="0.8" d="M25.782 7.71979L18.282 0.219792C18.1413 0.0790615 17.9504 0 17.7514 0C17.5524 0 17.3615 0.0790615 17.2208 0.219792C17.08 0.360523 17.001 0.551394 17.001 0.750417C17.001 0.94944 17.08 1.14031 17.2208 1.28104L24.1911 8.25042L17.2208 15.2198C17.08 15.3605 17.001 15.5514 17.001 15.7504C17.001 15.9494 17.08 16.1403 17.2208 16.281C17.3615 16.4218 17.5524 16.5008 17.7514 16.5008C17.9504 16.5008 18.1413 16.4218 18.282 16.281L25.782 8.78104C25.8518 8.71139 25.9071 8.62867 25.9448 8.53762C25.9826 8.44657 26.002 8.34898 26.002 8.25042C26.002 8.15186 25.9826 8.05426 25.9448 7.96321C25.9071 7.87216 25.8518 7.78945 25.782 7.71979Z" fill="#FEAE37"/>
<path opacity="0.8" d="M8.78104 7.71979L1.28104 0.219792C1.14031 0.0790615 0.94944 0 0.750417 0C0.551394 0 0.360522 0.0790615 0.219791 0.219792C0.0790609 0.360523 0 0.551394 0 0.750417C0 0.94944 0.0790609 1.14031 0.219791 1.28104L7.19011 8.25042L0.219791 15.2198C0.0790609 15.3605 0 15.5514 0 15.7504C0 15.9494 0.0790609 16.1403 0.219791 16.281C0.360522 16.4218 0.551394 16.5008 0.750417 16.5008C0.94944 16.5008 1.14031 16.4218 1.28104 16.281L8.78104 8.78104C8.85078 8.71139 8.90609 8.62867 8.94384 8.53762C8.98158 8.44657 9.00101 8.34898 9.00101 8.25042C9.00101 8.15186 8.98158 8.05426 8.94384 7.96321C8.90609 7.87216 8.85078 7.78945 8.78104 7.71979Z" fill="#FEAE37"/>
</svg>
